<?xml version="1.0" encoding="UTF-8"?>
<svg width="31px" height="31px" viewBox="0 0 31 31" version="1.1" xmlns="http://www.w3.org/2000/svg" xmlns:xlink="http://www.w3.org/1999/xlink">
    <!-- Generator: Sketch 42 (36781) - http://www.bohemiancoding.com/sketch -->
    <title>customizable</title>
    <desc>Created with Sketch.</desc>
    <defs></defs>
    <g id="Page-1" stroke="none" stroke-width="1" fill="none" fill-rule="evenodd">
        <g id="Desktop-HD-Copy-5" transform="translate(-698.000000, -801.000000)" fill="#455B65">
            <g id="customizable" transform="translate(698.000000, 801.000000)">
                <path d="M21.0887846,16.2465389 L29.9850483,7.35027518 C31.2865405,6.0468534 31.2865405,3.92722523 29.9840835,2.62476822 L28.4143817,1.05506634 C27.1514808,-0.205904996 24.949846,-0.205904996 23.6898395,1.05603112 L15.4911138,9.25572154 C15.8760622,6.89103849 15.1264259,4.45785586 13.3753448,2.70773956 C11.1862523,0.518647011 7.93107453,-0.117144963 5.08014087,1.08979853 C4.7839525,1.21425553 4.56977068,1.47860606 4.50898935,1.79312531 C4.44724324,2.10860934 4.54661589,2.43277641 4.77333989,2.65950041 L7.68312531,5.56928583 L7.06373464,7.09653726 L5.54999017,7.72171663 L2.63055692,4.80228337 C2.40383292,4.57555938 2.07773628,4.47329238 1.76321704,4.53696806 C1.44773301,4.59871417 1.18434726,4.81289599 1.05989025,5.10811957 C-0.145123669,7.96001802 0.489703522,11.2161605 2.67783129,13.4033235 C4.65853071,15.3849877 7.51235872,16.0796314 10.1500753,15.3039459 C10.0902588,15.5557543 10.0497379,15.8143161 10.0497379,16.0796314 C10.0497379,16.5803538 10.1703358,17.0598509 10.3777641,17.499792 L4.40286323,23.4737281 L3.2210041,24.1259214 C3.21328583,24.1297805 3.2094267,24.1394283 3.20170844,24.1432875 C3.12838493,24.1857379 3.07532187,24.2513432 3.01550532,24.3121245 C2.97209009,24.3565045 2.91999181,24.3893071 2.88622441,24.4404406 C2.88236527,24.4462293 2.87657658,24.4481589 2.87271744,24.4539476 L0.198339066,28.6768026 C-0.0428566749,29.0588567 0.0121359541,29.5566847 0.331479115,29.8760278 L1.16408681,30.7076708 C1.35028993,30.8938739 1.59727437,30.9893874 1.84618837,30.9893874 C2.02370844,30.9893874 2.20315807,30.9401835 2.36234726,30.839846 L6.58616708,28.1654676 C6.59195577,28.1616085 6.59485012,28.154855 6.60063882,28.1509959 C6.65177232,28.1172285 6.68553972,28.0651302 6.72895495,28.021715 C6.7887715,27.9618984 6.85437674,27.9088354 6.89682719,27.8364767 C6.90165111,27.8287584 6.91033415,27.8248993 6.91515807,27.8162162 L7.56638657,26.6343571 L13.5393579,20.6613857 C13.9792989,20.8688141 14.4587961,20.989412 14.9595184,20.989412 C15.2952629,20.989412 15.6184652,20.9247715 15.9310549,20.8302228 L24.6671646,29.5663325 C25.3174283,30.217561 26.1828387,30.5754955 27.1032416,30.5754955 C28.0236446,30.5754955 28.8890549,30.2165962 29.5393186,29.5663325 C30.1895823,28.915104 30.5475168,28.0506585 30.5475168,27.1302555 C30.5475168,26.2098526 30.1886175,25.345407 29.5383538,24.6951433 L21.0887846,16.2465389 Z M4.0420344,12.0400852 C2.78106306,10.7791138 2.2128059,9.0425045 2.43567076,7.33676822 L4.64116462,9.54226208 C4.91709255,9.81819001 5.33098444,9.89923178 5.69181327,9.75161998 L8.17419984,8.72605569 C8.41346601,8.62668305 8.60256347,8.4366208 8.70000655,8.19638984 L9.7110991,5.7014611 C9.85678133,5.34256183 9.77380999,4.93059951 9.49884685,4.65756593 L7.30685995,2.46557903 C9.01066667,2.2465733 10.7492056,2.81097133 12.0111417,4.07290745 C13.6416249,5.7014611 14.1143686,8.12789025 13.2161556,10.2513776 C13.0627551,10.6131712 13.1447617,11.031887 13.4226192,11.3097445 L13.4293726,11.316498 L11.2875545,13.4583161 L11.280801,13.4515627 C11.0029435,13.1737052 10.5851925,13.0916986 10.2224341,13.2450991 C8.09991155,14.143312 5.67348239,13.6705684 4.0420344,12.0400852 Z M6.78684193,24.6874251 L6.3526896,24.2542375 L11.5953202,19.0116069 L12.0285078,19.4447944 L6.78684193,24.6874251 Z M3.85776085,26.5070057 L3.90117609,26.550421 L4.53407371,27.1833186 L2.68940868,28.3516708 L3.85776085,26.5070057 Z M14.0149959,18.6835807 L12.3131188,16.9817035 C12.1008665,16.7279656 11.9802686,16.4153759 11.9802686,16.081561 C11.9802686,15.7043309 12.1269156,15.3492907 12.3941605,15.0820459 L25.0559722,2.42023423 C25.3212875,2.15395414 25.6763276,2.00730713 26.0535577,2.00730713 C26.4307879,2.00730713 26.785828,2.15395414 27.0521081,2.42023423 L28.6208452,3.98897133 C29.1707715,4.53986241 29.1707715,5.43711057 28.6208452,5.98703686 L15.9580688,18.6488485 C15.4399803,19.1669369 14.5543096,19.1717609 14.0149959,18.6835807 Z M28.1741507,28.204059 C27.6020344,28.77714 26.6044488,28.77714 26.0313677,28.204059 L17.5808337,19.753525 L19.7236167,17.610742 L28.1741507,26.0622408 C28.4606912,26.3478165 28.6179509,26.727941 28.6179509,27.1321851 C28.6189156,27.5364292 28.4606912,27.9175184 28.1741507,28.204059 Z" id="Shape"></path>
                <ellipse id="Oval" transform="translate(26.822798, 26.813429) rotate(-44.987846) translate(-26.822798, -26.813429) " cx="26.8227975" cy="26.8134285" rx="0.795029771" ry="0.795029771"></ellipse>
                <path d="M26.4018444,4.63730549 C26.1847682,4.41926454 25.8306929,4.41926454 25.6136167,4.63730549 L14.6093022,15.64162 C14.392226,15.8596609 14.392226,16.2127715 14.6093022,16.4308124 C14.8283079,16.6478886 15.1814185,16.6478886 15.4004242,16.4308124 L26.4018444,5.42649795 C26.6208501,5.20942179 26.6208501,4.85631122 26.4018444,4.63730549 Z" id="Shape"></path>
            </g>
        </g>
    </g>
</svg>