<?xml version="1.0" encoding="UTF-8"?>
<svg width="25px" height="32px" viewBox="0 0 25 32" version="1.1" xmlns="http://www.w3.org/2000/svg" xmlns:xlink="http://www.w3.org/1999/xlink">
    <!-- Generator: Sketch 42 (36781) - http://www.bohemiancoding.com/sketch -->
    <title>design</title>
    <desc>Created with Sketch.</desc>
    <defs></defs>
    <g id="Page-1" stroke="none" stroke-width="1" fill="none" fill-rule="evenodd">
        <g id="Desktop-HD-Copy-5" transform="translate(-987.000000, -802.000000)" fill="#455B65">
            <g id="design" transform="translate(987.000000, 802.000000)">
                <path d="M23.5197917,11.68 L24.278125,10.728 L23.396875,9.882 L23.978125,8.822 L22.9583333,8.128 L23.3447917,6.99 L22.2166667,6.47 L22.39375,5.283 L21.1947917,4.954 L21.159375,3.759 L19.921875,3.631 L19.678125,2.457 L18.4322917,2.529 L17.9875,1.416 L16.7708333,1.688 L16.1385417,0.663 L14.9854167,1.128 L14.1770833,0.218 L13.1270833,0.864 L12.1635417,0.098 L11.2479167,0.904 L10.1666667,0.305 L9.40625,1.251 L8.23541667,0.837 L7.64895833,1.894 L6.421875,1.675 L6.03020833,2.808 L4.78333333,2.79 L4.596875,3.972 L3.3625,4.156 L3.3875,5.354 L2.21145833,5.735 L2.44166667,6.911 L1.34375,7.481 L1.77916667,8.602 L0.798958333,9.34 L1.428125,10.369 L0.591666667,11.254 L1.39270833,12.174 L0.728125,13.181 L1.675,13.955 L1.19166667,15.065 L2.26458333,15.668 L1.98125,16.833 L3.15,17.259 L3.07604167,18.451 L4.30208333,18.682 L4.440625,19.872 L5.66979167,19.898 L1.49791667,29.779 C1.415625,29.973 1.46875,30.197 1.63125,30.338 C1.79375,30.48 2.03020833,30.508 2.22291667,30.409 L6.49270833,28.254 L8.37083333,31.608 C8.46145833,31.77 8.63854167,31.871 8.82916667,31.871 L8.85729167,31.871 C9.05833333,31.86 9.23645833,31.739 9.31145833,31.56 L12.7041667,23.53 L15.8604167,31.546 C15.9322917,31.728 16.10625,31.853 16.3072917,31.868 C16.3208333,31.869 16.334375,31.869 16.3479167,31.869 C16.534375,31.869 16.7083333,31.773 16.8010417,31.616 L18.76875,28.28 L22.9864583,30.492 C23.06875,30.535 23.1635417,30.554 23.246875,30.553 C23.49375,30.565 23.778125,30.333 23.778125,30.053 C23.778125,29.942 23.7395833,29.839 23.6760417,29.756 L19.665625,19.585 L20.8364583,19.505 L20.921875,18.314 L22.1364583,18.029 L22.0052083,16.838 L23.1458333,16.363 L22.8104167,15.211 L23.85625,14.555 L23.3177083,13.473 L24.2333333,12.658 L23.5197917,11.68 Z M8.76770833,30.2 L7.17083333,27.348 C7.07708333,27.18 6.896875,27.084 6.71145833,27.084 C6.62916667,27.084 6.546875,27.102 6.46979167,27.142 L3.00208333,28.893 L6.328125,21.015 L7.27083333,20.88 L7.81458333,21.956 L9.00208333,21.583 L9.73020833,22.558 L10.83125,21.997 L11.71875,22.833 L11.9552083,22.658 L8.76770833,30.2 Z M22.25625,28.968 L18.8229167,27.168 C18.5729167,27.037 18.2604167,27.123 18.1197917,27.36 L16.446875,30.196 L13.4635417,22.62 L13.7229167,22.795 L14.571875,21.911 L15.6989583,22.42 L16.3791667,21.415 L17.5802083,21.732 L18.01875,20.752 L18.040625,20.757 C18.1791667,20.786 18.3083333,20.74 18.421875,20.666 L19.0052083,20.723 L22.25625,28.968 Z M21.4864583,12.383 L20.784375,13.009 L21.1979167,13.839 L20.4,14.34 L20.6572917,15.223 L19.778125,15.589 L19.8791667,16.502 L18.9541667,16.719 L18.8895833,17.635 L17.9322917,17.701 L17.7114583,18.591 L16.7614583,18.5 L16.384375,19.343 L15.4645833,19.1 L14.94375,19.87 L14.0770833,19.478 L13.4291667,20.154 L12.6479167,19.628 L11.8864583,20.19 L11.203125,19.545 L10.3625,19.973 L9.80625,19.228 L8.89583333,19.514 L8.478125,18.687 L7.53333333,18.822 L7.26666667,17.939 L6.31145833,17.918 L6.20520833,17.008 L5.265625,16.83 L5.321875,15.916 L4.42604167,15.589 L4.64375,14.691 L3.81770833,14.227 L4.18541667,13.383 L3.45833333,12.789 L3.96979167,12.016 L3.35729167,11.313 L4.003125,10.63 L3.51979167,9.84 L4.26666667,9.278 L3.93125,8.417 L4.77083333,7.98 L4.59479167,7.08 L5.503125,6.785 L5.48333333,5.869 L6.428125,5.728 L6.57083333,4.82 L7.52604167,4.834 L7.82708333,3.965 L8.76979167,4.133 L9.21875,3.323 L10.1197917,3.642 L10.703125,2.916 L11.5302083,3.374 L12.234375,2.754 L12.971875,3.34 L13.771875,2.848 L14.3885417,3.542 L15.2708333,3.187 L15.7552083,3.974 L16.6916667,3.764 L17.0333333,4.619 L17.990625,4.563 L18.178125,5.466 L19.1270833,5.564 L19.1541667,6.479 L20.071875,6.731 L19.9354167,7.642 L20.796875,8.038 L20.5010417,8.91 L21.2822917,9.442 L20.8364583,10.256 L21.5135417,10.906 L20.9333333,11.635 L21.4864583,12.383 Z" id="Shape"></path>
                <path d="M19.9145833,10.67 L19.6572917,10.422 L19.828125,10.112 C19.95,9.89 19.88125,9.616 19.66875,9.471 L19.36875,9.267 L19.4822917,8.933 C19.5635417,8.695 19.4479167,8.436 19.2125,8.328 L18.88125,8.176 L18.9333333,7.825 C18.9697917,7.578 18.8104167,7.343 18.5604167,7.273 L18.2083333,7.176 L18.1979167,6.824 C18.190625,6.574 17.9916667,6.368 17.7322917,6.342 L17.3697917,6.304 L17.2979167,5.958 C17.2479167,5.714 17.034375,5.547 16.7552083,5.557 L16.3885417,5.578 L16.2583333,5.251 C16.1666667,5.017 15.9083333,4.887 15.653125,4.943 L15.29375,5.023 L15.1083333,4.723 C14.975,4.507 14.6979167,4.419 14.4583333,4.517 L14.1166667,4.654 L13.8791667,4.387 C13.7104167,4.196 13.421875,4.155 13.2020833,4.29 L12.89375,4.479 L12.6083333,4.252 C12.4083333,4.093 12.1145833,4.099 11.9239583,4.269 L11.6541667,4.506 L11.3364583,4.33 C11.109375,4.205 10.821875,4.26 10.6635417,4.458 L10.440625,4.735 L10.0958333,4.612 C9.85208333,4.526 9.57916667,4.626 9.45520833,4.846 L9.28333333,5.157 L8.92083333,5.093 C8.665625,5.051 8.41354167,5.191 8.33125,5.427 L8.21666667,5.76 L7.84895833,5.755 L7.84166667,5.755 C7.584375,5.755 7.365625,5.936 7.32708333,6.18 L7.271875,6.528 L6.90833333,6.582 C6.65104167,6.621 6.4625,6.836 6.46770833,7.087 L6.475,7.439 L6.128125,7.551 C5.88229167,7.63 5.734375,7.871 5.78229167,8.116 L5.85,8.464 L5.52604167,8.633 C5.296875,8.752 5.19479167,9.014 5.28645833,9.247 L5.415625,9.578 L5.128125,9.795 C4.92291667,9.949 4.86875,10.226 5,10.441 L5.184375,10.743 L4.93854167,11.004 C4.76354167,11.189 4.75729167,11.469 4.92395833,11.66 L5.16145833,11.931 L4.96458333,12.229 C4.82604167,12.439 4.86979167,12.715 5.06770833,12.877 L5.346875,13.104 L5.20416667,13.432 C5.10416667,13.662 5.196875,13.929 5.421875,14.056 L5.73645833,14.232 L5.653125,14.575 C5.59375,14.819 5.73125,15.067 5.975,15.156 L6.31875,15.281 L6.29791667,15.631 C6.28229167,15.881 6.46145833,16.104 6.71770833,16.151 L7.07916667,16.219 L7.11979167,16.569 C7.14895833,16.818 7.365625,17.007 7.62604167,17.013 L7.99270833,17.021 L8.09583333,17.361 C8.16770833,17.601 8.41770833,17.751 8.671875,17.716 L9.03333333,17.664 L9.19270833,17.98 C9.30729167,18.206 9.57604167,18.316 9.82291667,18.237 L10.1739583,18.128 L10.3885417,18.414 C10.5395833,18.617 10.8260417,18.681 11.05625,18.564 L11.3791667,18.4 L11.6416667,18.647 C11.7427083,18.742 11.8739583,18.79 12.00625,18.79 C12.1177083,18.79 12.2291667,18.756 12.3239583,18.686 L12.6135417,18.472 L12.9135417,18.674 C13.1260417,18.818 13.41875,18.787 13.5958333,18.604 L13.8458333,18.344 L14.1770833,18.493 C14.4125,18.602 14.69375,18.522 14.8354167,18.313 L15.0354167,18.016 L15.3895833,18.11 C15.640625,18.177 15.9041667,18.055 16.00625,17.825 L16.1510417,17.502 L16.5166667,17.537 C16.778125,17.559 17.0145833,17.399 17.075,17.155 L17.159375,16.815 L17.525,16.79 C17.784375,16.772 17.9895833,16.574 18.0072917,16.325 L18.0322917,15.973 L18.3895833,15.889 C18.6427083,15.829 18.8114583,15.599 18.7833333,15.351 L18.7447917,15 L19.0802083,14.861 C19.31875,14.761 19.4447917,14.508 19.375,14.267 L19.2770833,13.928 L19.584375,13.735 C19.803125,13.598 19.8822917,13.327 19.7697917,13.101 L19.6114583,12.783 L19.8802083,12.543 C20.071875,12.373 20.1010417,12.093 19.9510417,11.889 L19.7395833,11.602 L19.9625,11.322 C20.1177083,11.128 20.0989583,10.847 19.9145833,10.67 Z M18.665625,11.884 L18.834375,12.114 L18.61875,12.306 C18.4520833,12.456 18.4052083,12.691 18.503125,12.888 L18.6302083,13.143 L18.3854167,13.297 C18.1947917,13.416 18.1072917,13.64 18.16875,13.85 L18.2479167,14.121 L17.978125,14.233 C17.76875,14.321 17.6427083,14.528 17.6677083,14.745 L17.6989583,15.026 L17.4145833,15.092 C17.1947917,15.144 17.034375,15.326 17.01875,15.544 L16.9989583,15.826 L16.7041667,15.847 C16.4770833,15.863 16.2875,16.018 16.234375,16.23 L16.1666667,16.502 L15.8739583,16.474 C15.6489583,16.457 15.434375,16.575 15.34375,16.775 L15.228125,17.034 L14.9447917,16.959 C14.7260417,16.9 14.49375,16.986 14.3697917,17.169 L14.209375,17.406 L13.9427083,17.286 C13.7375,17.193 13.49375,17.239 13.3375,17.399 L13.1375,17.607 L12.8979167,17.446 C12.7114583,17.32 12.4625,17.326 12.28125,17.459 L12.046875,17.632 L11.8354167,17.433 C11.7354167,17.339 11.6041667,17.29 11.4708333,17.29 C11.3875,17.29 11.3041667,17.309 11.2270833,17.348 L10.9697917,17.48 L10.7989583,17.25 C10.6677083,17.074 10.43125,16.997 10.2145833,17.066 L9.93333333,17.154 L9.80520833,16.9 C9.70520833,16.704 9.48125,16.594 9.26041667,16.624 L8.97083333,16.665 L8.88854167,16.393 C8.825,16.183 8.62708333,16.038 8.4,16.033 L8.10729167,16.026 L8.075,15.747 C8.05,15.53 7.88020833,15.353 7.65729167,15.311 L7.36770833,15.256 L7.38541667,14.977 C7.39895833,14.758 7.26354167,14.557 7.05,14.48 L6.77395833,14.378 L6.840625,14.103 C6.89270833,13.889 6.79375,13.668 6.596875,13.558 L6.34479167,13.416 L6.45833333,13.154 C6.54583333,12.954 6.4875,12.722 6.31458333,12.581 L6.090625,12.398 L6.24791667,12.16 C6.36875,11.976 6.353125,11.738 6.20729167,11.571 L6.01770833,11.353 L6.215625,11.143 C6.36875,10.982 6.39479167,10.743 6.27916667,10.554 L6.13125,10.313 L6.36041667,10.14 C6.53854167,10.006 6.60625,9.776 6.52708333,9.572 L6.42395833,9.306 L6.68333333,9.17 C6.88229167,9.066 6.98958333,8.852 6.946875,8.638 L6.89270833,8.36 L7.171875,8.269 C7.3875,8.2 7.53125,8.003 7.52604167,7.786 L7.51979167,7.504 L7.81145833,7.461 C8.03541667,7.427 8.2125,7.257 8.24583333,7.041 L8.28958333,6.763 L8.58333333,6.767 C8.78645833,6.743 9.01354167,6.631 9.08541667,6.425 L9.17708333,6.158 L9.46875,6.21 C9.69166667,6.247 9.91666667,6.146 10.0239583,5.953 L10.1625,5.704 L10.4395833,5.803 C10.653125,5.876 10.8927083,5.812 11.0322917,5.639 L11.2104167,5.417 L11.4645833,5.558 C11.6614583,5.667 11.909375,5.641 12.0770833,5.493 L12.29375,5.303 L12.521875,5.485 C12.696875,5.624 12.94375,5.639 13.134375,5.521 L13.3802083,5.37 L13.5697917,5.583 C13.7166667,5.749 13.959375,5.805 14.1677083,5.72 L14.4416667,5.611 L14.590625,5.851 C14.70625,6.039 14.9354167,6.131 15.1572917,6.083 L15.446875,6.018 L15.5520833,6.282 C15.6333333,6.485 15.8333333,6.609 16.0708333,6.601 L16.365625,6.584 L16.4239583,6.861 C16.46875,7.076 16.653125,7.237 16.8791667,7.26 L17.1697917,7.29 L17.178125,7.571 C17.184375,7.789 17.3375,7.978 17.55625,8.038 L17.8395833,8.115 L17.7979167,8.396 C17.765625,8.612 17.8833333,8.824 18.0885417,8.917 L18.353125,9.039 L18.2625,9.307 C18.1916667,9.515 18.2708333,9.743 18.45625,9.869 L18.6958333,10.032 L18.559375,10.281 C18.453125,10.474 18.490625,10.713 18.6520833,10.868 L18.859375,11.067 L18.68125,11.292 C18.5395833,11.465 18.534375,11.706 18.665625,11.884 Z" id="Shape"></path>
                <path d="M12.434375,6.799 C9.753125,6.799 7.571875,8.894 7.571875,11.468 C7.571875,11.744 7.80520833,11.968 8.09270833,11.968 C8.38020833,11.968 8.61354167,11.744 8.61354167,11.468 C8.61354167,9.445 10.328125,7.799 12.434375,7.799 C12.721875,7.799 12.9552083,7.575 12.9552083,7.299 C12.9552083,7.023 12.7229167,6.799 12.434375,6.799 Z" id="Shape"></path>
            </g>
        </g>
    </g>
</svg>