<?xml version="1.0" encoding="UTF-8"?>
<svg width="14px" height="27px" viewBox="0 0 14 27" version="1.1" xmlns="http://www.w3.org/2000/svg" xmlns:xlink="http://www.w3.org/1999/xlink">
    <!-- Generator: Sketch 42 (36781) - http://www.bohemiancoding.com/sketch -->
    <title>facebook</title>
    <desc>Created with Sketch.</desc>
    <defs></defs>
    <g id="Page-1" stroke="none" stroke-width="1" fill="none" fill-rule="evenodd">
        <g id="Desktop-HD-Copy-5" transform="translate(-1315.000000, -2102.000000)" fill-rule="nonzero" fill="#F4F6FA">
            <g id="facebook" transform="translate(1315.000000, 2102.000000)">
                <g id="Artboard-1">
                    <g id="line-icons">
                        <g id="row-4-line-icons">
                            <path d="M9.06541176,0.684529412 C8.20070588,0.684529412 7.37058824,0.784588235 6.40211765,1.15147059 C4.43058824,1.91858824 3.42752941,3.71964706 3.42752941,6.52129412 L3.42752941,9.25623529 L0.660470588,9.25623529 L0.660470588,13.8255882 L3.42752941,13.8255882 L3.42752941,27 L9.06541176,27 L9.06541176,13.8255882 L12.9047059,13.8255882 L13.4235294,9.25623529 L9.06541176,9.25623529 L9.06541176,7.18835294 C9.06541176,6.55464706 9.13458824,6.08770588 9.30752941,5.82088235 C9.54964706,5.42064706 10.0338824,5.22052941 10.7948235,5.22052941 L13.3543529,5.22052941 L13.3543529,0.684529412 L9.06541176,0.684529412 Z" id="facebook_L"></path>
                        </g>
                    </g>
                </g>
            </g>
        </g>
    </g>
</svg>