<?xml version="1.0" encoding="UTF-8"?>
<svg width="129px" height="38px" viewBox="0 0 129 38" version="1.1" xmlns="http://www.w3.org/2000/svg" xmlns:xlink="http://www.w3.org/1999/xlink">
    <!-- Generator: Sketch 42 (36781) - http://www.bohemiancoding.com/sketch -->
    <title>logo</title>
    <desc>Created with Sketch.</desc>
    <defs>
        <path d="M118.907865,19.4312057 C118.829307,19.3319149 118.709046,19.3070922 118.526716,19.3617021 C115.959535,19.5970213 113.170261,20.6921986 113.170261,19.287234 C113.170261,18.6994326 113.374898,10.2249645 117.437579,0.994893617 C114.760807,1.00978723 108.652722,0.994893617 108.652722,0.994893617 C108.652722,0.994893617 108.518883,1.52808511 108.297759,2.42170213 C106.488998,1.44468085 104.15361,0.872765957 101.232437,0.872765957 C96.1009861,0.872765957 91.8249389,3.91304965 89.1093725,7.95716312 C88.3313275,7.74367649 87.5726908,7.46197331 86.8418745,7.1151773 C87.3985656,4.66070922 87.4441483,2.80595745 87.0222657,2.21319149 C83.6491443,-2.5329078 76.0203423,2.66794326 76.8534393,4.97148936 C78.3625183,9.15163121 76.0775632,21.1658156 70.6541891,21.1658156 C66.4838549,21.1658156 78.9686716,1.49829787 67.8600652,1.49829787 C64.6692747,1.49829787 60.8539038,3.89219858 58.404075,5.72014184 C56.7456398,2.56468085 53.2638957,0.358439716 47.5214425,0.358439716 C38.3088835,0.357446809 31.8448655,10.1594326 32.2609291,17.9716312 C30.8439853,18.9139007 29.4260717,19.1978723 29.0313447,18.1364539 C27.8908068,15.0693617 36.8453871,0.236312057 25.5253545,0.236312057 C22.4305786,0.236312057 17.054727,4.31914894 17.054727,4.31914894 C17.054727,4.31914894 16.8859739,0 11.4296251,0 C6.83255909,0 -0.268647107,5.6387234 0.111532192,8.75248227 C0.134808476,8.95106383 5.40591687,8.20439716 5.67844336,9.03546099 C6.47759576,11.4651064 2.36157294,19.3289362 2.95026895,23.1724823 C3.56224124,27.1798582 7.34754686,27.4499291 13.4090791,27.1520567 C12.9823472,22.3652482 15.2333578,15.9451064 16.7647433,10.4712057 C17.210872,8.87460993 19.1243765,8.24212766 19.8566096,8.81404255 C21.1174083,9.8 17.3873839,18.7212766 17.2380277,21.8320567 C17.1012795,24.6836879 17.9004319,27.3923404 23.0958924,27.3923404 C27.4844417,27.3923404 31.1824613,23.9628369 33.1037245,21.7615603 C34.5264874,25.0967376 37.7832274,27.4638298 43.3608068,27.4638298 C53.2532274,27.4638298 59.9567971,17.9130496 59.5640098,10.1485106 C59.8551356,10.0143999 60.1577134,9.90804004 60.4679055,9.83078014 C66.4091769,8.5529078 50.5182641,27.6167376 66.2472127,27.6167376 C76.7157213,27.6167376 82.9285493,18.4273759 85.6576936,11.0580142 C86.162013,11.2933333 86.6663325,11.5038298 87.1638631,11.6785816 C84.2068052,19.2346099 86.350163,27.978156 97.0708313,27.978156 C99.9379395,27.979999 102.747443,27.1540656 105.176797,25.5951773 C105.943945,26.8512057 107.198924,27.8510638 109.23075,27.8510638 C115.443578,27.8550355 119.633309,20.3804255 118.907865,19.4312057 Z M44.3461695,20.2255319 L44.3461695,20.2255319 C40.14674,20.2255319 43.6672779,7.50340426 47.268313,7.50340426 C50.0769845,7.50241135 48.3176854,20.224539 44.3461695,20.224539 L44.3461695,20.2255319 Z M98.0513447,20.741844 C93.8519152,20.741844 97.3724531,8.01971631 100.973488,8.01971631 C103.786039,8.0187234 102.02771,20.7408511 98.0513447,20.7408511 L98.0513447,20.741844 Z" id="path-1"></path>
        <mask id="mask-2" maskContentUnits="userSpaceOnUse" maskUnits="objectBoundingBox" x="-4.26982885" y="-4.26982885" width="127.432153" height="36.5178168">
            <rect x="-4.17295436" y="-4.26982885" width="127.432153" height="36.5178168" fill="white"></rect>
            <use xlink:href="#path-1" fill="black"></use>
        </mask>
    </defs>
    <g id="Page-1" stroke="none" stroke-width="1" fill="none" fill-rule="evenodd">
        <g id="Theme-Copy" transform="translate(-97.000000, -52.000000)" fill-rule="nonzero">
            <g id="logo" transform="translate(102.000000, 57.000000)">
                <path d="M118.907865,19.4312057 C118.829307,19.3319149 118.709046,19.3070922 118.526716,19.3617021 C115.959535,19.5970213 113.170261,20.6921986 113.170261,19.287234 C113.170261,18.6994326 113.374898,10.2249645 117.437579,0.994893617 C114.760807,1.00978723 108.652722,0.994893617 108.652722,0.994893617 C108.652722,0.994893617 108.518883,1.52808511 108.297759,2.42170213 C106.488998,1.44468085 104.15361,0.872765957 101.232437,0.872765957 C96.1009861,0.872765957 91.8249389,3.91304965 89.1093725,7.95716312 C88.3313275,7.74367649 87.5726908,7.46197331 86.8418745,7.1151773 C87.3985656,4.66070922 87.4441483,2.80595745 87.0222657,2.21319149 C83.6491443,-2.5329078 76.0203423,2.66794326 76.8534393,4.97148936 C78.3625183,9.15163121 76.0775632,21.1658156 70.6541891,21.1658156 C66.4838549,21.1658156 78.9686716,1.49829787 67.8600652,1.49829787 C64.6692747,1.49829787 60.8539038,3.89219858 58.404075,5.72014184 C56.7456398,2.56468085 53.2638957,0.358439716 47.5214425,0.358439716 C38.3088835,0.357446809 31.8448655,10.1594326 32.2609291,17.9716312 C30.8439853,18.9139007 29.4260717,19.1978723 29.0313447,18.1364539 C27.8908068,15.0693617 36.8453871,0.236312057 25.5253545,0.236312057 C22.4305786,0.236312057 17.054727,4.31914894 17.054727,4.31914894 C17.054727,4.31914894 16.8859739,0 11.4296251,0 C6.83255909,0 -0.268647107,5.6387234 0.111532192,8.75248227 C0.134808476,8.95106383 5.40591687,8.20439716 5.67844336,9.03546099 C6.47759576,11.4651064 2.36157294,19.3289362 2.95026895,23.1724823 C3.56224124,27.1798582 7.34754686,27.4499291 13.4090791,27.1520567 C12.9823472,22.3652482 15.2333578,15.9451064 16.7647433,10.4712057 C17.210872,8.87460993 19.1243765,8.24212766 19.8566096,8.81404255 C21.1174083,9.8 17.3873839,18.7212766 17.2380277,21.8320567 C17.1012795,24.6836879 17.9004319,27.3923404 23.0958924,27.3923404 C27.4844417,27.3923404 31.1824613,23.9628369 33.1037245,21.7615603 C34.5264874,25.0967376 37.7832274,27.4638298 43.3608068,27.4638298 C53.2532274,27.4638298 59.9567971,17.9130496 59.5640098,10.1485106 C59.8551356,10.0143999 60.1577134,9.90804004 60.4679055,9.83078014 C66.4091769,8.5529078 50.5182641,27.6167376 66.2472127,27.6167376 C76.7157213,27.6167376 82.9285493,18.4273759 85.6576936,11.0580142 C86.162013,11.2933333 86.6663325,11.5038298 87.1638631,11.6785816 C84.2068052,19.2346099 86.350163,27.978156 97.0708313,27.978156 C99.9379395,27.979999 102.747443,27.1540656 105.176797,25.5951773 C105.943945,26.8512057 107.198924,27.8510638 109.23075,27.8510638 C115.443578,27.8550355 119.633309,20.3804255 118.907865,19.4312057 Z M44.3461695,20.2255319 L44.3461695,20.2255319 C40.14674,20.2255319 43.6672779,7.50340426 47.268313,7.50340426 C50.0769845,7.50241135 48.3176854,20.224539 44.3461695,20.224539 L44.3461695,20.2255319 Z M98.0513447,20.741844 C93.8519152,20.741844 97.3724531,8.01971631 100.973488,8.01971631 C103.786039,8.0187234 102.02771,20.7408511 98.0513447,20.7408511 L98.0513447,20.741844 Z" id="Shape" fill="#FFFFFF"></path>
                <use id="Shape" stroke="#000000" mask="url(#mask-2)" stroke-width="8.5396577" xlink:href="#path-1"></use>
            </g>
        </g>
    </g>
</svg>