<?xml version="1.0" encoding="UTF-8"?>
<svg width="18px" height="31px" viewBox="0 0 18 31" version="1.1" xmlns="http://www.w3.org/2000/svg" xmlns:xlink="http://www.w3.org/1999/xlink">
    <!-- Generator: Sketch 43 (38999) - http://www.bohemiancoding.com/sketch -->
    <title>mouse</title>
    <desc>Created with Sketch.</desc>
    <defs></defs>
    <g id="Page-1" stroke="none" stroke-width="1" fill="none" fill-rule="evenodd">
        <g id="Artboard" transform="translate(-523.000000, -632.000000)" fill-rule="nonzero" fill="#FFFFFF">
            <g id="mouse" transform="translate(523.000000, 632.000000)">
                <path d="M8.5,13 L9.5,13 L9.5,10 L8.5,10 L8.5,13 Z M8.5,6 L9.5,6 L9.5,0 L8.5,0 L8.5,6 Z M12.5,6 L5.5,6 C2.5555,6 0,8.5555 0,11.5 L0,22.5 C0,27.3165 3.6835,31 8.5,31 L9.5,31 C14.3165,31 18,27.3165 18,22.5 L18,11.5 C18,8.5555 15.444,6 12.5,6 Z M17,22.5 C17,26.4695 13.4695,30 9.5,30 L8.5,30 C4.2425,30 1,26.7575 1,22.5 L1,16.5 L17,16.5 L17,22.5 Z M17,15.5 L1,15.5 L1,11.5 C1,9.112 3.1115,7 5.5,7 L12.5,7 C14.8885,7 17,9.112 17,11.5 L17,15.5 Z" id="Shape"></path>
            </g>
        </g>
    </g>
</svg>