<?xml version="1.0" encoding="UTF-8"?>
<svg width="22px" height="33px" viewBox="0 0 22 33" version="1.1" xmlns="http://www.w3.org/2000/svg" xmlns:xlink="http://www.w3.org/1999/xlink">
    <!-- Generator: Sketch 42 (36781) - http://www.bohemiancoding.com/sketch -->
    <title>responsive</title>
    <desc>Created with Sketch.</desc>
    <defs></defs>
    <g id="Page-1" stroke="none" stroke-width="1" fill="none" fill-rule="evenodd">
        <g id="Desktop-HD-Copy-5" transform="translate(-424.000000, -801.000000)" fill="#455B65">
            <g id="responsive" transform="translate(424.000000, 801.000000)">
                <g id="Group">
                    <path d="M19.565,0.166153846 L2.315,0.166153846 C1.211,0.166153846 0.315,1.08512821 0.315,2.2174359 L0.315,30.9353846 C0.315,32.0687179 1.211,32.9866667 2.315,32.9866667 L19.565,32.9866667 C20.67,32.9866667 21.565,32.0687179 21.565,30.9353846 L21.565,2.2174359 C21.565,1.08410256 20.669,0.166153846 19.565,0.166153846 Z M2.315,2.2174359 L19.565,2.2174359 L19.565,30.9353846 L2.315,30.9353846 L2.315,2.2174359 Z" id="Shape"></path>
                    <path d="M12.502,3.56307692 L9.377,3.56307692 C9.101,3.56307692 8.877,3.79282051 8.877,4.07589744 C8.877,4.35897436 9.101,4.58871795 9.377,4.58871795 L12.502,4.58871795 C12.778,4.58871795 13.002,4.35897436 13.002,4.07589744 C13.002,3.79282051 12.779,3.56307692 12.502,3.56307692 Z" id="Shape"></path>
                </g>
                <path d="M17.5,26.3333333 L3.5,26.3333333 C3.224,26.3333333 3,26.1035897 3,25.8205128 L3,6.84615385 C3,6.56307692 3.224,6.33333333 3.5,6.33333333 L17.5,6.33333333 C17.776,6.33333333 18,6.56307692 18,6.84615385 L18,25.8205128 C18,26.1035897 17.776,26.3333333 17.5,26.3333333 Z M4,25.3076923 L17,25.3076923 L17,7.35897436 L4,7.35897436 L4,25.3076923 Z" id="Shape"></path>
                <ellipse id="Oval" cx="10.991" cy="28.8882051" rx="0.991" ry="1.01641026"></ellipse>
            </g>
        </g>
    </g>
</svg>