<?xml version="1.0" encoding="UTF-8"?>
<svg width="36px" height="62px" viewBox="0 0 36 62" version="1.1" xmlns="http://www.w3.org/2000/svg" xmlns:xlink="http://www.w3.org/1999/xlink">
    <!-- Generator: Sketch 43 (38999) - http://www.bohemiancoding.com/sketch -->
    <title>Shape</title>
    <desc>Created with Sketch.</desc>
    <defs></defs>
    <g id="Page-1" stroke="none" stroke-width="1" fill="none" fill-rule="evenodd">
        <g id="Artboard" transform="translate(-523.000000, -632.000000)" fill-rule="nonzero" fill="#FFFFFF">
            <g id="mouse" transform="translate(523.000000, 632.000000)">
                <path d="M17,26 L19,26 L19,20 L17,20 L17,26 Z M17,12 L19,12 L19,0 L17,0 L17,12 Z M25,12 L11,12 C5.111,12 0,17.111 0,23 L0,45 C0,54.633 7.367,62 17,62 L19,62 C28.633,62 36,54.633 36,45 L36,23 C36,17.111 30.888,12 25,12 Z M34,45 C34,52.939 26.939,60 19,60 L17,60 C8.485,60 2,53.515 2,45 L2,33 L34,33 L34,45 Z M34,31 L2,31 L2,23 C2,18.224 6.223,14 11,14 L25,14 C29.777,14 34,18.224 34,23 L34,31 Z" id="Shape"></path>
            </g>
        </g>
    </g>
</svg>