<?xml version="1.0" encoding="UTF-8" standalone="no"?>
<!-- Created with Inkscape (http://www.inkscape.org/) -->

<svg
   xmlns:dc="http://purl.org/dc/elements/1.1/"
   xmlns:cc="http://creativecommons.org/ns#"
   xmlns:rdf="http://www.w3.org/1999/02/22-rdf-syntax-ns#"
   xmlns:svg="http://www.w3.org/2000/svg"
   xmlns="http://www.w3.org/2000/svg"
   xmlns:sodipodi="http://sodipodi.sourceforge.net/DTD/sodipodi-0.dtd"
   xmlns:inkscape="http://www.inkscape.org/namespaces/inkscape"
   width="100.09105mm"
   height="18.209099mm"
   viewBox="0 0 100.09105 18.209099"
   version="1.1"
   id="svg8"
   inkscape:version="0.91 r13725"
   sodipodi:docname="textidote.svg">
  <defs
     id="defs2" />
  <sodipodi:namedview
     id="base"
     pagecolor="#ffffff"
     bordercolor="#666666"
     borderopacity="1.0"
     inkscape:pageopacity="0.0"
     inkscape:pageshadow="2"
     inkscape:zoom="1"
     inkscape:cx="-254.25309"
     inkscape:cy="-278.37591"
     inkscape:document-units="mm"
     inkscape:current-layer="layer1"
     showgrid="false"
     fit-margin-top="0"
     fit-margin-left="0"
     fit-margin-right="0"
     fit-margin-bottom="0"
     inkscape:window-width="1920"
     inkscape:window-height="1021"
     inkscape:window-x="0"
     inkscape:window-y="265"
     inkscape:window-maximized="1" />
  <metadata
     id="metadata5">
    <rdf:RDF>
      <cc:Work
         rdf:about="">
        <dc:format>image/svg+xml</dc:format>
        <dc:type
           rdf:resource="http://purl.org/dc/dcmitype/StillImage" />
        <dc:title />
      </cc:Work>
    </rdf:RDF>
  </metadata>
  <g
     inkscape:label="Layer 1"
     inkscape:groupmode="layer"
     id="layer1"
     transform="translate(-29.738095,-70.577751)">
    <g
       style="font-style:normal;font-weight:normal;font-size:20.92894554px;line-height:1.25;font-family:sans-serif;letter-spacing:0px;word-spacing:0px;fill:#ffffff;fill-opacity:1;stroke:#000000;stroke-width:1.97753823;stroke-miterlimit:4;stroke-dasharray:none"
       id="text836">
      <path
         d="m 30.726864,71.56652 5.232236,0 0,4.209044 5.813596,0 0,3.604429 -5.813596,0 0,4.813658 5.813596,0 0,3.604429 -11.045832,0 0,-16.23156 z"
         style="font-style:normal;font-variant:normal;font-weight:normal;font-stretch:normal;font-family:Tutor;-inkscape-font-specification:Tutor;fill:#ffffff;stroke:#000000;stroke-width:1.97753823;stroke-miterlimit:4;stroke-dasharray:none"
         id="path3386" />
      <path
         d="m 42.335888,75.775564 11.045832,0 0,7.813473 -5.813596,0 0,0.604614 5.813596,0 0,3.604429 -11.045832,0 0,-12.022516 z m 5.232236,4.209043 0.58136,0 0,-0.604614 -0.58136,0 0,0.604614 z"
         style="font-style:normal;font-variant:normal;font-weight:normal;font-stretch:normal;font-family:Tutor;-inkscape-font-specification:Tutor;fill:#ffffff;stroke:#000000;stroke-width:1.97753823;stroke-miterlimit:4;stroke-dasharray:none"
         id="path3388" />
      <path
         d="m 53.944912,75.775564 5.232236,0 0,3.604429 -5.232236,0 0,-3.604429 z m 5.813596,0 5.232236,0 0,3.604429 -5.232236,0 0,-3.604429 z m -5.813596,8.418087 5.232236,0 0,3.604429 -5.232236,0 0,-3.604429 z m 5.813596,0 5.232236,0 0,3.604429 -5.232236,0 0,-3.604429 z"
         style="font-style:normal;font-variant:normal;font-weight:normal;font-stretch:normal;font-family:Tutor;-inkscape-font-specification:Tutor;fill:#ffffff;stroke:#000000;stroke-width:1.97753823;stroke-miterlimit:4;stroke-dasharray:none"
         id="path3390" />
      <path
         d="m 65.553936,71.56652 5.232236,0 0,4.209044 5.813596,0 0,3.604429 -5.813596,0 0,4.813658 5.813596,0 0,3.604429 -11.045832,0 0,-16.23156 z"
         style="font-style:normal;font-variant:normal;font-weight:normal;font-stretch:normal;font-family:Tutor;-inkscape-font-specification:Tutor;fill:#ffffff;stroke:#000000;stroke-width:1.97753823;stroke-miterlimit:4;stroke-dasharray:none"
         id="path3392" />
      <path
         d="m 77.16296,75.775564 5.232236,0 0,12.022516 -5.232236,0 0,-12.022516 z m 0,-4.209044 5.232236,0 0,3.60443 -5.232236,0 0,-3.60443 z"
         style="font-style:normal;font-variant:normal;font-weight:normal;font-stretch:normal;font-family:Tutor;-inkscape-font-specification:Tutor;fill:#ffffff;stroke:#000000;stroke-width:1.97753823;stroke-miterlimit:4;stroke-dasharray:none"
         id="path3394" />
      <path
         d="m 82.967472,75.775564 5.813596,0 0,-4.209044 5.232236,0 0,16.23156 -11.045832,0 0,-12.022516 z m 5.232236,8.418087 0.58136,0 0,-4.813658 -0.58136,0 0,4.813658 z"
         style="font-style:normal;font-variant:normal;font-weight:normal;font-stretch:normal;font-family:Tutor;-inkscape-font-specification:Tutor;fill:#ffffff;stroke:#000000;stroke-width:1.97753823;stroke-miterlimit:4;stroke-dasharray:none"
         id="path3396" />
      <path
         d="m 94.576496,75.775564 11.045834,0 0,12.022516 -11.045834,0 0,-12.022516 z m 5.232237,8.418087 0.581357,0 0,-4.813658 -0.581357,0 0,4.813658 z"
         style="font-style:normal;font-variant:normal;font-weight:normal;font-stretch:normal;font-family:Tutor;-inkscape-font-specification:Tutor;fill:#ffffff;stroke:#000000;stroke-width:1.97753823;stroke-miterlimit:4;stroke-dasharray:none"
         id="path3398" />
      <path
         d="m 106.18552,71.56652 5.23224,0 0,4.209044 5.81359,0 0,3.604429 -5.81359,0 0,4.813658 5.81359,0 0,3.604429 -11.04583,0 0,-16.23156 z"
         style="font-style:normal;font-variant:normal;font-weight:normal;font-stretch:normal;font-family:Tutor;-inkscape-font-specification:Tutor;fill:#ffffff;stroke:#000000;stroke-width:1.97753823;stroke-miterlimit:4;stroke-dasharray:none"
         id="path3400" />
      <path
         d="m 117.79454,75.775564 11.04584,0 0,7.813473 -5.8136,0 0,0.604614 5.8136,0 0,3.604429 -11.04584,0 0,-12.022516 z m 5.23224,4.209043 0.58136,0 0,-0.604614 -0.58136,0 0,0.604614 z"
         style="font-style:normal;font-variant:normal;font-weight:normal;font-stretch:normal;font-family:Tutor;-inkscape-font-specification:Tutor;fill:#ffffff;stroke:#000000;stroke-width:1.97753823;stroke-miterlimit:4;stroke-dasharray:none"
         id="path3402" />
    </g>
  </g>
</svg>
