<?xml version="1.0" encoding="UTF-8"?>
<svg width="25px" height="22px" viewBox="0 0 25 22" version="1.1" xmlns="http://www.w3.org/2000/svg" xmlns:xlink="http://www.w3.org/1999/xlink">
    <!-- Generator: Sketch 42 (36781) - http://www.bohemiancoding.com/sketch -->
    <title>twitter</title>
    <desc>Created with Sketch.</desc>
    <defs></defs>
    <g id="Page-1" stroke="none" stroke-width="1" fill="none" fill-rule="evenodd">
        <g id="Desktop-HD-Copy-5" transform="translate(-1265.000000, -2107.000000)" fill-rule="nonzero" fill="#F4F6FA">
            <g id="twitter" transform="translate(1265.000000, 2107.000000)">
                <g id="twitter_L">
                    <g id="Page-1">
                        <g id="Artboard-1">
                            <g id="line-icons">
                                <g id="row-4-line-icons">
                                    <path d="M5.36380806,5.37525715 C9.24015161,7.35254072 12.5161089,7.23846673 12.5161089,7.23846673 C12.5161089,7.23846673 11.2741734,2.86562768 15.1128823,0.926369074 C18.9515911,-1.01288978 21.593175,2.25663794 21.593175,2.25663794 C21.593175,2.25663794 22.2626621,2.07095118 22.761496,1.8852645 C23.2603298,1.69957781 23.9823258,1.36799439 23.9823258,1.36799439 L22.7994435,3.50126814 L24.6209024,3.3061908 C24.6209024,3.3061908 24.3964032,3.63784031 23.667425,4.31334624 C22.9384468,4.98885208 22.6379984,5.33782659 22.6379984,5.33782659 C22.6379984,5.33782659 22.8984097,10.6014077 20.1541282,14.6538742 C17.4098468,18.7063406 13.8640742,21.1385256 8.71327016,21.6504162 C3.56246532,22.1623067 0.207895161,20.0533795 0.207895161,20.0533795 C0.207895161,20.0533795 2.46059677,19.9234833 3.89606694,19.3689351 C5.3315371,18.814387 7.39606613,17.3536269 7.39606613,17.3536269 C7.39606613,17.3536269 4.46058306,16.4410345 3.40681935,15.414368 C2.35305645,14.3877015 2.08961532,13.7793065 2.08961532,13.7793065 L4.98746452,13.7412818 C4.98746452,13.7412818 1.93907742,12.1062205 1.07348629,10.8133812 C0.207895161,9.52054196 0.0949919355,8.26572731 0.0949919355,8.26572731 L2.32288468,9.17472136 C2.32288468,9.17472136 0.47133629,6.63066588 0.207895161,4.65338231 C-0.0555451613,2.67609874 0.546604839,1.61140752 0.546604839,1.61140752 C0.546604839,1.61140752 1.48746532,3.39797358 5.36380806,5.37525715 Z" id="twitter_L"></path>
                                </g>
                            </g>
                        </g>
                    </g>
                </g>
            </g>
        </g>
    </g>
</svg>